<?xml version="1.0" standalone="no"?><!DOCTYPE svg PUBLIC "-//W3C//DTD SVG 1.1//EN" "http://www.w3.org/Graphics/SVG/1.1/DTD/svg11.dtd"><svg t="1694803328214" class="icon" viewBox="0 0 1024 1024" version="1.1" xmlns="http://www.w3.org/2000/svg" p-id="5013" xmlns:xlink="http://www.w3.org/1999/xlink" width="32" height="32"><path d="M979.944727 473.762909L509.719273 943.988364c-45.358545 45.358545-113.291636 51.269818-151.412364 13.172363L68.677818 667.531636c-38.120727-38.120727-32.209455-106.030545 13.172364-151.412363L552.075636 45.893818l355.188364 72.680727 72.680727 355.188364zM114.757818 549.026909c-26.763636 26.763636-32.791273 65.954909-13.172363 85.573818L391.214545 924.229818c19.618909 19.618909 58.810182 13.591273 85.573819-13.172363L928.116364 459.729455 869.166545 156.672 566.085818 97.698909 114.757818 549.026909z" fill="#A0A0A0" p-id="5014"></path><path d="M707.188364 450.304c-36.305455 36.305455-95.348364 36.305455-131.653819 0s-36.305455-95.348364 0-131.653818 95.348364-36.305455 131.653819 0a93.184 93.184 0 0 1 0 131.653818z m-98.746182-98.746182c-18.152727 18.152727-18.152727 47.662545 0 65.815273s47.662545 18.152727 65.815273 0c18.152727-18.152727 18.152727-47.662545 0-65.815273a46.568727 46.568727 0 0 0-65.815273 0z" fill="#A0A0A0" p-id="5015"></path></svg>