<?xml version="1.0" standalone="no"?><!DOCTYPE svg PUBLIC "-//W3C//DTD SVG 1.1//EN" "http://www.w3.org/Graphics/SVG/1.1/DTD/svg11.dtd"><svg t="1694761495650" class="icon" viewBox="0 0 1024 1024" version="1.1" xmlns="http://www.w3.org/2000/svg" p-id="10498" xmlns:xlink="http://www.w3.org/1999/xlink" width="32" height="32"><path d="M935.444 346.317L599.736 528.589c-31.006 16.63-49.93 49.89-49.93 86.958v352.379c0 37.806 37.069 62.75 68.076 45.342l335.749-182.23c30.228-16.63 49.889-49.89 49.889-86.959v-351.6c0-38.585-37.069-62.792-68.076-46.162zM424.264 527.81L88.556 346.358c-31.007-16.712-68.076 7.536-68.076 45.302v353.894c0 37.069 18.924 70.328 49.89 86.958l335.748 181.453c31.007 16.67 68.076-8.274 68.076-46.08V614.728c0-37.028-18.924-70.329-49.93-86.958z m480.215-263.906c15.851-8.315 23.429-22.692 21.913-36.29 1.516-14.336-6.062-27.976-21.913-36.29L562.668 12.86C547.512 4.547 529.408 0.737 511.263 0.737c-18.187 0-36.332 3.81-51.446 12.124l-341.77 177.685c-15.893 8.315-22.692 22.692-21.955 36.29-0.737 14.377 6.062 28.754 21.955 37.07l341.77 177.725c15.155 8.315 33.26 12.083 51.446 12.083 18.145 0 36.29-3.768 51.405-12.083l341.81-177.726z" p-id="10499"></path></svg>