<?xml version="1.0" standalone="no"?><!DOCTYPE svg PUBLIC "-//W3C//DTD SVG 1.1//EN" "http://www.w3.org/Graphics/SVG/1.1/DTD/svg11.dtd"><svg t="1697612989888" class="icon" viewBox="0 0 1027 1024" version="1.1" xmlns="http://www.w3.org/2000/svg" p-id="2840" xmlns:xlink="http://www.w3.org/1999/xlink" width="200.5859375" height="200"><path d="M475.022222 0H73.955556C34.133333 0 0 34.133333 0 73.955556v878.933333C0 989.866667 34.133333 1024 73.955556 1024h878.933333c39.822222 0 73.955556-34.133333 73.955555-73.955556V548.977778c0-19.911111-17.066667-36.977778-36.977777-36.977778s-36.977778 17.066667-36.977778 36.977778v401.066666H73.955556V73.955556h401.066666c19.911111 0 36.977778-17.066667 36.977778-36.977778S494.933333 0 475.022222 0z" fill="#ffffff" p-id="2841"></path><path d="M913.066667 73.955556c19.911111 0 36.977778 17.066667 36.977777 36.977777 0 8.533333-2.844444 19.911111-11.377777 25.6l-426.666667 426.666667-65.422222 14.222222 14.222222-65.422222 426.666667-426.666667c5.688889-8.533333 17.066667-11.377778 25.6-11.377777z m0-73.955556c-28.444444 0-56.888889 11.377778-76.8 31.288889l-426.666667 426.666667c-11.377778 11.377778-17.066667 22.755556-19.911111 36.977777l-25.6 125.155556c-2.844444 19.911111 11.377778 39.822222 31.288889 42.666667h11.377778l125.155555-28.444445c14.222222-2.844444 25.6-8.533333 36.977778-19.911111l426.666667-426.666667c42.666667-42.666667 42.666667-113.777778 0-156.444444C969.955556 11.377778 941.511111 0 913.066667 0z" fill="#ffffff" p-id="2842"></path></svg>