<?xml version="1.0" standalone="no"?><!DOCTYPE svg PUBLIC "-//W3C//DTD SVG 1.1//EN" "http://www.w3.org/Graphics/SVG/1.1/DTD/svg11.dtd"><svg t="1694759285289" class="icon" viewBox="0 0 1024 1024" version="1.1" xmlns="http://www.w3.org/2000/svg" p-id="1446" xmlns:xlink="http://www.w3.org/1999/xlink" width="32" height="32"><path d="M512 42.666667c259.2 0 469.333333 210.133333 469.333333 469.333333s-210.133333 469.333333-469.333333 469.333333S42.666667 771.2 42.666667 512 252.8 42.666667 512 42.666667z m-8.618667 264.192l-3.605333 3.413333-213.610667 213.589333a42.666667 42.666667 0 0 0-2.496 57.642667l2.496 2.709333 150.848 150.826667a42.666667 42.666667 0 0 0 57.621334 2.517333l2.730666-2.496 213.610667-213.610666a85.333333 85.333333 0 0 0 24.96-61.930667l-0.213333-4.949333-9.28-120.512a42.666667 42.666667 0 0 0-35.818667-38.869334l-3.456-0.405333-120.512-9.258667a85.333333 85.333333 0 0 0-63.274667 21.333334z m39.232 81.237333a64 64 0 1 1 90.517334 90.517333 64 64 0 0 1-90.517334-90.517333z" fill="#292E33" p-id="1447"></path></svg>